<svg fill="#ffffff" xmlns="http://www.w3.org/2000/svg" width="69.406" height="80.485" viewBox="0 0 69.406 80.485">
    <path d="M148.241,0a20.13,20.13,0,1,0,20.13,20.13A20.153,20.153,0,0,0,148.241,0Zm0,35.141A15.011,15.011,0,1,1,163.252,20.13,15.028,15.028,0,0,1,148.241,35.141Z" transform="translate(-113.538)"/>
    <path d="M2.743,419.721H66.663a2.559,2.559,0,0,0,2.526-2.148c.183-1.125.216-17.873.216-18.04a16.774,16.774,0,0,0-16.755-16.755h-35.9A16.774,16.774,0,0,0,0,399.533c0,.167.033,16.914.216,18.04A2.559,2.559,0,0,0,2.743,419.721ZM16.755,387.9h35.9a11.65,11.65,0,0,1,11.636,11.636c0,1.449-.043,10.656-.109,15.069H5.228c-.066-4.413-.109-13.62-.109-15.069A11.65,11.65,0,0,1,16.755,387.9Z" transform="translate(0 -339.236)"/>
</svg>